<svg width="0" height="0" class="hidden">
  <symbol xmlns="http://www.w3.org/2000/svg" viewBox="0 0 24 24" id="iconmonstr-check-mark-1">
    <path d="M20.285 2l-11.285 11.567-5.286-5.011-3.714 3.716 9 8.728 15-15.285z"></path>
  </symbol>
  <symbol xmlns="http://www.w3.org/2000/svg" fill-rule="evenodd" clip-rule="evenodd" viewBox="0 0 24 24" id="iconmonstr-trash-can-24">
    <path d="M19 24h-14c-1.104 0-2-.896-2-2v-16h18v16c0 1.104-.896 2-2 2m3-19h-20v-2h6v-1.5c0-.827.673-1.5 1.5-1.5h5c.825 0 1.5.671 1.5 1.5v1.5h6v2zm-12-2h4v-1h-4v1z"></path>
  </symbol>
</svg>